<?xml version="1.0" encoding="utf-8"?>
<!-- Generator: Adobe Illustrator 19.0.0, SVG Export Plug-In . SVG Version: 6.00 Build 0)  -->
<svg version="1.1" id="Layer_1" xmlns="http://www.w3.org/2000/svg" xmlns:xlink="http://www.w3.org/1999/xlink" x="0px" y="0px"
	 viewBox="-487 489 24 24" style="enable-background:new -487 489 24 24;" xml:space="preserve">
<style type="text/css">
	.st0{fill:#FFFFFF;}
	.st1{fill:#FFFFFF;stroke:#FFFFFF;stroke-miterlimit:10;}
	.st2{fill-rule:evenodd;clip-rule:evenodd;fill:#FFFFFF;stroke:#000000;stroke-miterlimit:10;}
</style>
<g>
	<path class="st0" d="M-475,489.6c6.3,0,11.4,5.1,11.4,11.4c0,6.3-5.1,11.4-11.4,11.4c-6.3,0-11.4-5.1-11.4-11.4
		C-486.4,494.7-481.3,489.6-475,489.6 M-475,489.1c-6.6,0-11.9,5.4-11.9,11.9c0,6.6,5.4,11.9,11.9,11.9c6.6,0,11.9-5.4,11.9-11.9
		C-463.1,494.4-468.4,489.1-475,489.1L-475,489.1z"/>
	<ellipse class="st1" cx="-475" cy="501" rx="11.2" ry="11.3"/>
</g>
<g>
	<path class="st2" d="M-470.5,494.9c-3,0-6,0-9,0c-1.1,0-1.6,0.6-1.6,1.6c0,1.5,0,3,0,4.5c0,1.5,0,3,0,4.5c0,1,0.6,1.6,1.6,1.6
		c3,0,6.1,0,9.1,0c1,0,1.6-0.6,1.6-1.6c0-3,0-6,0-9C-468.9,495.4-469.4,494.9-470.5,494.9z M-471.5,496.3c1.2,0,1.2,0,1.2,1.2
		c0,1.2,0,1.2-1.2,1.2c-1.2,0-1.2,0-1.2-1.2C-472.7,496.3-472.7,496.3-471.5,496.3z M-475,498.6c1.3,0,2.4,1.1,2.4,2.4
		c0,1.3-1.1,2.4-2.4,2.4c-1.3,0-2.4-1.1-2.4-2.4C-477.4,499.7-476.3,498.6-475,498.6z M-470.3,505c0,0.6-0.2,0.7-0.7,0.7
		c-1.3,0-2.7,0-4,0c-1.3,0-2.7,0-4,0c-0.6,0-0.7-0.2-0.7-0.7c0-1.5,0-3,0-4.5c0-0.4,0.1-0.5,0.5-0.5c0.6,0,0.6,0,0.5,0.6
		c-0.2,1.9,1.1,3.7,3,4.1c1.9,0.4,3.9-0.8,4.4-2.6c0.2-0.6,0.2-1.2,0.1-1.8c0-0.2,0-0.3,0.2-0.3c0.8-0.1,0.8-0.1,0.8,0.8
		C-470.3,502.2-470.3,503.6-470.3,505z"/>
</g>
</svg>
